<svg width="40" height="40" viewBox="0 0 40 40" fill="none" xmlns="http://www.w3.org/2000/svg">
<rect width="40" height="40" rx="20" fill="#EEF4FA"/>
<rect x="8" y="8" width="24" height="24" rx="12" fill="#CEDEF0"/>
<g clip-path="url(#clip0_39_10971)">
<path d="M22.75 17.25H22.755M17.5 15H22.5C23.8807 15 25 16.1193 25 17.5V22.5C25 23.8807 23.8807 25 22.5 25H17.5C16.1193 25 15 23.8807 15 22.5V17.5C15 16.1193 16.1193 15 17.5 15ZM22 19.685C22.0617 20.1011 21.9906 20.5261 21.7969 20.8995C21.6031 21.2729 21.2966 21.5757 20.9208 21.7648C20.5451 21.954 20.1192 22.0198 19.7039 21.953C19.2886 21.8861 18.9049 21.69 18.6074 21.3926C18.31 21.0951 18.1139 20.7114 18.047 20.2961C17.9802 19.8808 18.046 19.4549 18.2352 19.0792C18.4243 18.7034 18.7271 18.3969 19.1005 18.2031C19.4739 18.0094 19.8989 17.9383 20.315 18C20.7395 18.0629 21.1324 18.2607 21.4358 18.5642C21.7393 18.8676 21.9371 19.2605 22 19.685Z" stroke="#0A5BB4" stroke-linecap="round" stroke-linejoin="round"/>
</g>
<defs>
<clipPath id="clip0_39_10971">
<rect width="12" height="12" fill="white" transform="translate(14 14)"/>
</clipPath>
</defs>
</svg>
