<svg width="41" height="40" viewBox="0 0 41 40" fill="none" xmlns="http://www.w3.org/2000/svg">
<rect x="0.5" width="40" height="40" rx="20" fill="#EEF4FA"/>
<rect x="8.5" y="8" width="24" height="24" rx="12" fill="#CEDEF0"/>
<path d="M22.5 18C23.2956 18 24.0587 18.3161 24.6213 18.8787C25.1839 19.4413 25.5 20.2044 25.5 21V24.5H23.5V21C23.5 20.7348 23.3946 20.4804 23.2071 20.2929C23.0196 20.1054 22.7652 20 22.5 20C22.2348 20 21.9804 20.1054 21.7929 20.2929C21.6054 20.4804 21.5 20.7348 21.5 21V24.5H19.5V21C19.5 20.2044 19.8161 19.4413 20.3787 18.8787C20.9413 18.3161 21.7044 18 22.5 18Z" stroke="#0A5BB4" stroke-linecap="round" stroke-linejoin="round"/>
<path d="M17.5 18.5H15.5V24.5H17.5V18.5Z" stroke="#0A5BB4" stroke-linecap="round" stroke-linejoin="round"/>
<path d="M16.5 17C17.0523 17 17.5 16.5523 17.5 16C17.5 15.4477 17.0523 15 16.5 15C15.9477 15 15.5 15.4477 15.5 16C15.5 16.5523 15.9477 17 16.5 17Z" stroke="#0A5BB4" stroke-linecap="round" stroke-linejoin="round"/>
</svg>
